<mxfile host="app.diagrams.net" modified="2024-04-08T12:27:25.419Z" agent="Mozilla/5.0 (Windows NT 10.0; Win64; x64) AppleWebKit/537.36 (KHTML, like Gecko) Chrome/108.0.0.0 Safari/537.36" version="24.2.2" etag="Tc0cCk-DGisPFB5T506w" type="github">
  <diagram name="第 1 页" id="gMngAK_zAIVCATzVcK_D">
    <mxGraphModel>
      <root>
        <mxCell id="0" />
        <mxCell id="1" parent="0" />
      </root>
    </mxGraphModel>
  </diagram>
</mxfile>
